<?xml version="1.0" encoding="UTF-8" standalone="no"?>
<svg xmlns="http://www.w3.org/2000/svg" version="1.1" viewBox="0.00 0.00 500.00 136.00">
  <path fill="#406aa0" d="   M 489.92 0.70   L 497.46 8.34   Q 497.75 8.63 497.75 9.05   L 497.75 62.26   Q 497.75 62.52 497.49 62.52   L 490.03 62.52   Q 489.79 62.52 489.79 62.28   L 489.79 0.75   A 0.08 0.07 23.7 0 1 489.92 0.70   Z"></path>
  <path fill="#406aa0" d="   M 389.51 57.48   L 389.56 61.60   Q 389.58 62.66 388.52 62.58   Q 385.67 62.38 382.91 62.63   Q 381.70 62.73 381.70 61.52   L 381.70 0.93   Q 381.70 0.78 381.80 0.88   L 389.34 8.39   Q 389.55 8.60 389.55 8.89   L 389.54 27.27   Q 389.54 28.51 390.27 27.51   C 395.59 20.33 407.42 20.34 414.43 24.60   C 423.43 30.06 426.28 41.93 422.29 51.12   Q 417.36 62.48 404.52 63.32   Q 395.75 63.90 390.04 57.28   Q 389.50 56.65 389.51 57.48   Z   M 416.00 42.53   A 13.19 13.19 0.0 0 0 402.81 29.34   A 13.19 13.19 0.0 0 0 389.62 42.53   A 13.19 13.19 0.0 0 0 402.81 55.72   A 13.19 13.19 0.0 0 0 416.00 42.53   Z"></path>
  <path fill="#406aa0" d="   M 476.07 0.80   Q 479.86 4.44 483.84 8.43   Q 484.00 8.58 484.00 8.80   L 484.01 62.26   Q 484.01 62.52 483.74 62.52   L 476.30 62.52   Q 476.09 62.52 476.09 62.30   L 476.06 0.80   Q 476.06 0.80 476.07 0.80   Z"></path>
  <path fill="#406aa0" d="   M 214.70 13.11   L 209.00 17.80   Q 208.77 17.99 208.56 17.77   C 201.82 11.00 192.53 8.69 183.81 12.56   C 169.30 18.99 166.00 38.63 177.46 49.55   C 186.59 58.27 200.10 57.34 208.72 48.31   Q 208.93 48.09 209.17 48.29   L 214.92 53.04   Q 215.08 53.18 214.94 53.34   C 199.57 70.20 171.76 65.12 164.19 43.27   C 157.60 24.24 170.76 3.83 191.08 2.96   Q 205.07 2.36 214.73 12.76   A 0.24 0.24 0.0 0 1 214.70 13.11   Z"></path>
  <path fill="#406aa0" d="   M 103.02 29.22   C 92.94 18.45 78.54 14.25 64.46 18.55   C 35.63 27.36 28.97 65.04 52.87 83.34   C 71.79 97.84 98.16 91.00 108.73 70.10   Q 108.97 69.62 109.50 69.62   L 134.69 69.64   Q 135.27 69.64 135.25 70.22   Q 134.07 102.53 109.07 122.12   C 99.46 129.65 86.63 134.50 74.46 135.47   Q 52.58 137.21 33.74 125.50   C 3.15 106.50 -6.43 66.16 12.19 35.42   C 31.60 3.38 73.49 -6.28 105.06 14.11   Q 113.99 19.88 121.41 29.09   A 0.34 0.33 70.7 0 1 121.15 29.64   L 103.97 29.64   Q 103.40 29.64 103.02 29.22   Z"></path>
  <path fill="#406aa0" d="   M 250.77 57.10   Q 248.26 60.62 244.21 62.10   C 234.71 65.58 223.64 61.78 219.12 52.59   C 214.29 42.78 216.84 29.81 226.91 24.31   C 234.25 20.31 245.21 20.49 250.74 27.71   Q 251.26 28.39 251.26 27.53   L 251.24 22.73   Q 251.24 22.63 251.34 22.63   L 258.77 22.60   A 0.27 0.27 0.0 0 1 259.04 22.87   L 259.04 61.55   Q 259.04 62.52 258.07 62.52   L 252.26 62.52   Q 251.24 62.53 251.24 61.50   L 251.26 57.26   Q 251.27 56.41 250.77 57.10   Z   M 251.20 42.53   A 13.21 13.21 0.0 0 0 237.99 29.32   A 13.21 13.21 0.0 0 0 224.78 42.53   A 13.21 13.21 0.0 0 0 237.99 55.74   A 13.21 13.21 0.0 0 0 251.20 42.53   Z"></path>
  <path fill="#406aa0" d="   M 273.17 27.51   Q 280.23 19.32 291.21 22.89   Q 295.96 24.44 298.27 29.03   Q 298.63 29.75 299.05 29.07   Q 305.17 19.38 317.62 22.40   C 325.92 24.42 328.21 32.62 328.10 40.51   Q 327.95 51.39 328.14 62.16   Q 328.15 62.53 327.78 62.53   L 320.32 62.51   Q 320.11 62.51 320.11 62.30   Q 320.33 49.58 320.10 38.81   C 319.94 31.10 312.62 27.10 305.95 30.56   C 302.06 32.58 300.38 36.86 300.44 41.37   Q 300.57 51.57 300.48 62.10   Q 300.48 62.53 300.05 62.53   L 292.80 62.52   Q 292.49 62.52 292.49 62.21   Q 292.42 51.48 292.52 40.86   C 292.56 36.20 291.47 31.51 286.72 29.90   C 281.81 28.24 276.06 30.70 273.89 35.28   Q 272.68 37.84 272.69 43.86   Q 272.70 53.49 272.79 62.15   Q 272.80 62.51 272.43 62.51   L 265.29 62.53   Q 264.80 62.53 264.80 62.04   L 264.81 23.53   Q 264.81 22.61 265.72 22.61   L 271.69 22.59   Q 272.80 22.59 272.78 23.69   L 272.69 27.32   Q 272.67 28.08 273.17 27.51   Z"></path>
  <path fill="#406aa0" d="   M 341.75 57.56   L 341.78 88.49   A 0.25 0.25 0.0 0 1 341.36 88.67   L 334.21 81.63   Q 333.87 81.29 333.87 80.81   L 333.87 23.62   Q 333.87 22.61 334.88 22.60   L 340.69 22.59   Q 341.78 22.59 341.77 23.69   L 341.74 27.72   Q 341.74 28.59 342.29 27.91   Q 347.28 21.80 354.96 21.77   Q 370.09 21.73 374.86 35.75   C 377.21 42.65 375.70 52.15 370.20 57.50   Q 361.74 65.71 349.69 62.50   Q 345.29 61.32 342.28 57.38   Q 341.75 56.68 341.75 57.56   Z   M 357.2765 55.5728   A 13.22 13.08 79.6 0 0 367.7551 40.2088   A 13.22 13.08 79.6 0 0 352.5035 29.5672   A 13.22 13.08 79.6 0 0 342.0249 44.9312   A 13.22 13.08 79.6 0 0 357.2765 55.5728   Z"></path>
  <path fill="#406aa0" d="   M 438.25 45.53   A 0.59 0.58 -8.7 0 0 437.69 46.29   Q 440.95 56.77 451.65 56.19   Q 458.16 55.83 461.73 50.65   Q 462.02 50.23 462.38 50.60   L 466.90 55.17   Q 467.28 55.55 466.93 55.96   Q 461.67 62.10 453.68 63.14   C 440.16 64.92 429.82 56.01 429.80 42.20   Q 429.79 31.48 438.02 25.45   C 444.06 21.03 453.23 20.49 459.87 23.88   C 468.03 28.03 470.85 36.22 470.25 45.05   Q 470.21 45.53 469.73 45.53   L 438.25 45.53   Z   M 438.07 39.52   L 462.21 39.44   A 0.11 0.11 0.0 0 0 462.32 39.33   L 462.32 39.27   A 12.01 10.43 -0.2 0 0 450.27 28.88   L 449.93 28.88   A 12.01 10.43 -0.2 0 0 437.96 39.35   L 437.96 39.41   A 0.11 0.11 0.0 0 0 438.07 39.52   Z"></path>
  <rect fill="#ecaa3f" x="-8.21" y="-8.20" transform="translate(123.58,57.24) rotate(45.0)" width="16.42" height="16.40" rx="0.26"></rect>
  <circle fill="#406aa0" cx="431.95" cy="99.93" r="4.26"></circle>
  <path fill="#406aa0" d="   M 188.23 127.45   Q 191.21 126.17 193.76 123.39   Q 193.95 123.19 194.13 123.39   L 198.32 127.76   Q 198.52 127.97 198.31 128.18   Q 191.56 135.11 182.55 134.95   C 169.02 134.72 161.10 124.16 163.66 111.03   Q 165.01 104.14 171.33 99.83   C 179.88 94.02 190.97 95.72 198.30 103.10   Q 198.74 103.54 198.29 103.97   L 194.30 107.77   Q 193.97 108.08 193.64 107.76   Q 189.51 103.57 184.41 102.90   C 176.10 101.80 169.30 108.26 169.83 116.66   C 170.42 126.01 180.01 130.97 188.23 127.45   Z"></path>
  <rect fill="#406aa0" x="235.44" y="96.39" width="6.50" height="37.62" rx="0.34"></rect>
  <rect fill="#406aa0" x="248.69" y="96.40" width="6.54" height="37.62" rx="0.29"></rect>
  <path fill="#406aa0" d="   M 301.84 131.66   L 302.03 133.18   Q 302.14 134.00 301.32 134.00   L 296.27 134.01   Q 295.54 134.01 295.54 133.27   L 295.53 96.67   Q 295.53 96.37 295.83 96.37   L 301.73 96.43   Q 302.03 96.43 302.03 96.73   L 301.92 109.52   Q 301.91 110.25 302.45 109.75   C 310.02 102.86 320.95 106.79 323.06 116.37   Q 325.47 127.30 316.90 132.92   Q 311.88 136.21 305.51 133.51   C 304.42 133.06 303.41 132.04 302.44 131.31   Q 301.73 130.78 301.84 131.66   Z   M 309.3463 128.8299   A 8.35 7.78 90.3 0 0 317.1699 120.5207   A 8.35 7.78 90.3 0 0 309.4337 112.1301   A 8.35 7.78 90.3 0 0 301.6101 120.4393   A 8.35 7.78 90.3 0 0 309.3463 128.8299   Z"></path>
  <path fill="#406aa0" d="   M 413.73 112.41   L 410.94 112.44   A 0.43 0.43 0.0 0 1 410.50 112.00   L 410.53 107.31   A 0.43 0.43 0.0 0 1 410.98 106.89   L 413.71 107.05   A 0.43 0.43 0.0 0 0 414.17 106.62   L 414.11 97.26   A 0.43 0.43 0.0 0 1 414.54 96.83   L 420.09 96.77   A 0.43 0.43 0.0 0 1 420.52 97.20   L 420.51 106.61   A 0.43 0.43 0.0 0 0 420.96 107.04   L 424.23 106.91   A 0.43 0.43 0.0 0 1 424.68 107.33   L 424.76 111.98   A 0.43 0.43 0.0 0 1 424.33 112.41   L 420.95 112.38   A 0.43 0.43 0.0 0 0 420.51 112.81   L 420.51 133.61   A 0.43 0.43 0.0 0 1 420.08 134.04   L 414.55 134.00   A 0.43 0.43 0.0 0 1 414.12 133.57   L 414.16 112.84   A 0.43 0.43 0.0 0 0 413.73 112.41   Z"></path>
  <path fill="#406aa0" d="   M 230.85 120.49   A 14.25 14.25 0.0 0 1 216.60 134.74   A 14.25 14.25 0.0 0 1 202.35 120.49   A 14.25 14.25 0.0 0 1 216.60 106.24   A 14.25 14.25 0.0 0 1 230.85 120.49   Z   M 216.3017 128.7650   A 8.26 7.76 92.0 0 0 224.3453 120.7808   A 8.26 7.76 92.0 0 0 216.8783 112.2550   A 8.26 7.76 92.0 0 0 208.8347 120.2392   A 8.26 7.76 92.0 0 0 216.3017 128.7650   Z"></path>
  <path fill="#406aa0" d="   M 282.48 109.48   L 282.47 107.54   Q 282.47 106.93 283.09 106.93   L 288.21 106.97   Q 288.95 106.97 288.95 107.71   L 288.97 133.14   Q 288.97 134.01 288.11 134.01   L 283.25 134.02   Q 282.48 134.02 282.47 133.25   L 282.47 131.75   Q 282.46 130.80 281.76 131.45   Q 276.66 136.18 270.15 134.09   C 261.48 131.31 258.85 120.91 262.57 113.29   C 265.77 106.71 273.31 104.33 279.79 107.97   C 280.58 108.42 281.22 109.14 281.89 109.74   Q 282.48 110.27 282.48 109.48   Z   M 275.1730 128.8397   A 8.36 7.76 89.5 0 0 282.8597 120.4123   A 8.36 7.76 89.5 0 0 275.0270 112.1203   A 8.36 7.76 89.5 0 0 267.3403 120.5477   A 8.36 7.76 89.5 0 0 275.1730 128.8397   Z"></path>
  <path fill="#406aa0" d="   M 356.33 120.49   A 14.25 14.25 0.0 0 1 342.08 134.74   A 14.25 14.25 0.0 0 1 327.83 120.49   A 14.25 14.25 0.0 0 1 342.08 106.24   A 14.25 14.25 0.0 0 1 356.33 120.49   Z   M 341.7429 128.7639   A 8.26 7.77 92.2 0 0 349.8243 120.8083   A 8.26 7.77 92.2 0 0 342.3771 112.2561   A 8.26 7.77 92.2 0 0 334.2957 120.2117   A 8.26 7.77 92.2 0 0 341.7429 128.7639   Z"></path>
  <path fill="#406aa0" d="   M 367.34 110.21   Q 369.92 105.32 375.05 106.51   A 0.70 0.70 0.0 0 1 375.55 107.43   L 374.00 111.82   A 0.66 0.65 -65.8 0 1 373.07 112.18   C 369.77 110.42 368.09 115.52 368.03 117.87   Q 367.81 125.39 368.01 133.27   Q 368.03 134.00 367.31 134.00   L 362.02 134.02   Q 361.51 134.03 361.51 133.52   L 361.51 107.84   Q 361.51 106.95 362.40 106.95   L 366.28 106.96   Q 367.18 106.96 366.99 107.84   Q 366.74 109.00 366.79 110.09   Q 366.84 111.15 367.34 110.21   Z"></path>
  <path fill="#406aa0" d="   M 399.13 109.48   L 398.95 107.81   Q 398.87 106.98 399.69 106.98   L 404.86 106.94   Q 405.53 106.93 405.53 107.61   L 405.53 133.37   Q 405.53 134.02 404.88 134.02   L 399.46 133.99   A 0.50 0.50 0.0 0 1 398.96 133.45   L 399.07 131.96   Q 399.16 130.77 398.26 131.56   Q 393.37 135.85 387.40 134.30   C 378.64 132.03 375.55 122.25 378.63 114.25   C 381.81 106.02 392.17 103.49 398.54 109.77   Q 399.23 110.45 399.13 109.48   Z   M 391.7174 128.8295   A 8.35 7.76 89.4 0 0 399.3896 120.3987   A 8.35 7.76 89.4 0 0 391.5426 112.1305   A 8.35 7.76 89.4 0 0 383.8704 120.5613   A 8.35 7.76 89.4 0 0 391.7174 128.8295   Z"></path>
  <path fill="#406aa0" d="   M 469.15 120.49   A 14.25 14.25 0.0 0 1 454.90 134.74   A 14.25 14.25 0.0 0 1 440.65 120.49   A 14.25 14.25 0.0 0 1 454.90 106.24   A 14.25 14.25 0.0 0 1 469.15 120.49   Z   M 454.5345 128.7428   A 8.25 7.78 92.4 0 0 462.6532 120.8258   A 8.25 7.78 92.4 0 0 455.2255 112.2572   A 8.25 7.78 92.4 0 0 447.1068 120.1742   A 8.25 7.78 92.4 0 0 454.5345 128.7428   Z"></path>
  <path fill="#406aa0" d="   M 481.03 109.45   Q 481.87 108.81 482.74 108.16   C 489.02 103.44 497.82 107.48 497.77 115.52   Q 497.73 124.38 497.75 133.55   Q 497.75 134.03 497.26 134.03   L 491.94 134.02   Q 491.44 134.02 491.45 133.52   Q 491.58 126.71 491.26 117.58   C 491.15 114.60 489.41 111.87 486.12 112.19   C 481.70 112.62 480.31 116.86 480.31 120.82   Q 480.32 127.62 480.28 133.76   Q 480.28 134.03 480.01 134.03   L 474.06 133.99   Q 473.87 133.98 473.86 133.79   L 473.86 107.55   Q 473.86 106.97 474.45 106.97   L 479.74 106.94   Q 480.30 106.94 480.29 107.49   L 480.26 109.05   Q 480.24 110.05 481.03 109.45   Z"></path>
  <rect fill="#406aa0" x="428.71" y="106.96" width="6.48" height="27.06" rx="0.32"></rect>
</svg>
