<svg xmlns="http://www.w3.org/2000/svg" fill="none" viewBox="0 0 168 58">
  <path fill="#FF6120" d="m16.9 20.44 16.89 18.5-7.56 8.29a12.4 12.4 0 0 1-18.67 0 12.51 12.51 0 0 1 0-16.57l9.33-10.22Zm37.08 0 10 10.95a11.41 11.41 0 0 1 0 15.1 13.29 13.29 0 0 1-20 0l-6.9-7.55 16.9-18.5ZM35.37 35.2l-15.6-17.07L30.9 5.96a6.56 6.56 0 0 1 9.87 0l10.65 11.67L35.37 35.2Z"/>
  <path fill="#000" stroke="#000" stroke-width=".39" d="M87.94 4.38v1.06H81.3v4.2h6.14v1.1H81.3v4.3h6.73v1.11h-7.88V4.38h7.8Zm8.98 0V13l-.01.4a3.23 3.23 0 0 1-.8 2.04c-.45.49-1.11.8-1.99.92l-.38.04c-.54.03-1.1.03-1.61-.05a3.15 3.15 0 0 1-1.85-.87c-.39-.4-.65-.93-.77-1.6l-.03-.3c-.1-1-.1-2.03 0-3.03l.05-.43c.1-.8.46-1.43.99-1.86a3.1 3.1 0 0 1 1.74-.67h.89c.63 0 .96 0 1.26.09.28.08.55.23 1.03.53v.01l.1.06h.01l.1-.18h.18V4.4h1.1Zm-3.34 4.25a3.96 3.96 0 0 0-.76 0l-.25.02c-.56.06-1.03.26-1.38.6a2 2 0 0 0-.57 1.16l-.02.2c-.05.69-.06 1.38-.04 2.07l.04.68c.05.91.58 1.62 1.43 1.83l.17.04c.67.1 1.37.07 2.03-.02.7-.1 1.2-.58 1.4-1.23l.03-.13c.14-.6.16-1.23.23-1.8l-.19-.02v-.01h.13v-.93l-.02-.27a2.4 2.4 0 0 0-.55-1.47 2.42 2.42 0 0 0-1.41-.69l-.27-.04Zm30.44 30.6v8.65a3.4 3.4 0 0 1-.8 2.41c-.46.49-1.11.8-1.98.91l-.38.04a8.3 8.3 0 0 1-1.8-.08 2.9 2.9 0 0 1-2.48-2.63l-.02-.28c-.02-.7-.03-1.4-.02-2.11l.02-.7a3.1 3.1 0 0 1 .91-2.19 3.1 3.1 0 0 1 1.9-.81l.34-.01h.7c.8-.05 1.51.12 2.21.74l.33.28v-4.22h1.07Zm-4.1 4.25c-.75.06-1.31.28-1.7.7-.33.36-.5.85-.55 1.47l-.02.27V47h.02v.76l.01.33c.05.6.24 1.09.59 1.45.3.3.71.5 1.22.59l.22.03c.32.04.65.04.98.02l.32-.03a1.93 1.93 0 0 0 1.8-1.57l.03-.18c.05-.38.07-.76.08-1.14l.01-1.12c.02-.98-.24-1.7-.78-2.16a2.75 2.75 0 0 0-1.9-.52l-.34.02Zm8.19-.88a7.5 7.5 0 0 1 2.3-.09l.33.05c1.25.22 2.04 1.18 2.15 2.46l.02.26v3.22l.02.3.02.3c.04.33.1.59.27.76.13.13.31.2.53.23l.23.02.2.03v.56l-.01.32c-.4.03-.76.04-1.07-.04-.35-.1-.66-.3-.9-.74l-.15-.27-.18.25a2.54 2.54 0 0 1-2.2 1.04h-.53c-.43 0-.86-.03-1.27-.09l-.25-.04-.22-.05a2.33 2.33 0 0 1-1.7-2.2v-.24c0-1.2.66-2.11 1.74-2.42l.22-.05c.26-.05.52-.07.8-.09l.81-.03c.78-.02 1.55 0 2.36 0l.05-.2.15.02c.06-.73-.06-1.33-.41-1.76-.3-.37-.76-.6-1.34-.68l-.25-.03c-.68-.05-1.39-.01-2 .44l-.12.1-.15.12a.52.52 0 0 0-.14.22.9.9 0 0 1-.25.44.55.55 0 0 1-.33.14c-.14.02-.3.01-.47 0l-.32-.02c.13-1.03.81-1.9 1.84-2.2l.22-.05Zm3.6 4.42c-1.06 0-2.03-.04-3 0l-.4.01c-.81.05-1.35.62-1.47 1.33l-.02.14c-.07.74.35 1.43 1.13 1.66.82.24 1.67.27 2.5-.02l.16-.06c.47-.2.86-.53 1.03-1l.07-.22c.1-.48.13-.99.18-1.45h.02v-.2l-.2-.01v-.18ZM119.04 7.87a4.87 4.87 0 0 1 3.32-.1l.22.08c.56.22.96.55 1.22.97.23.37.37.81.42 1.31l.02.22c.03.53.04 1.06.04 1.6v1.93l.02.33c.03.33.08.6.26.79.13.13.32.2.54.23l.24.03.16.02v.88a3.6 3.6 0 0 1-1.05-.03 1.29 1.29 0 0 1-.87-.7l-.13-.24-.18.2c-1.3 1.32-2.83 1.24-4.42.82l-.31-.1a1.87 1.87 0 0 1-1.18-.94 3 3 0 0 1-.3-1.5v-.26a2.4 2.4 0 0 1 1.7-2.04l.2-.05c.26-.06.53-.1.8-.11l.27-.01c.97-.02 1.94 0 2.91 0h.15l.04-.15a1.9 1.9 0 0 0-1.04-2.3l-.18-.07a3.1 3.1 0 0 0-2.1.01l-.14.06c-.37.18-.7.5-.95.82l-.1.15a.76.76 0 0 1-.2.24c-.05.03-.11.05-.24.04a6.6 6.6 0 0 0-.77 0c.07-.84.66-1.68 1.46-2.06l.17-.07Zm4.02 4.3c-1.06 0-2.05-.04-3.02 0l-.42.02c-.64.03-1.15.41-1.36 1.04l-.04.13c-.14.56-.02 1.03.32 1.44l.16.17c.19.19.5.32.83.4a4.39 4.39 0 0 0 2.27-.08c.3-.1.59-.26.78-.48l.08-.1c.16-.2.37-.48.43-.8.1-.5.12-1.05.17-1.53l.02-.21h-.22ZM87.62 39.23v1.09h-6.3v4.44h5.74v1.1H81.3V51h-1.14V39.23h7.46Zm59.5 3.25a7.7 7.7 0 0 1 2.03.02l.28.04c1.17.23 1.99.92 2.21 2.04l.04.22c.15 1.29.18 2.6.06 3.89-.07.7-.34 1.26-.75 1.67-.37.37-.85.62-1.43.75l-.25.04a8.7 8.7 0 0 1-2.28.01l-.32-.05c-1.3-.22-2.18-1.29-2.33-2.66l-.01-.28c-.02-.45 0-.9 0-1.36v-.2h-.03c.01-.45 0-.88.06-1.3l.03-.21c.13-.8.42-1.41.85-1.84a2.9 2.9 0 0 1 1.55-.74l.29-.04Zm3.58 3.57c0-.81-.17-1.44-.57-1.89-.35-.38-.86-.6-1.52-.67l-.29-.03a3.1 3.1 0 0 0-1.92.4c-.47.33-.77.83-.88 1.56l-.04.33c-.04.61-.06 1.24-.02 1.87l.02.26c.08.82.35 1.45.83 1.85.43.35.99.5 1.67.5l.3-.01a2.9 2.9 0 0 0 1.63-.52 2 2 0 0 0 .71-1.16l.04-.22c.04-.25.05-.5.04-.74l-.02-.5h.02v-1.03Zm-59.27-3.56c.77-.1 1.6-.1 2.36.05a2.9 2.9 0 0 1 1.55.75c.34.33.58.77.68 1.3l.04.24c.13 1.12.17 2.27.09 3.4l-.05.48a2.62 2.62 0 0 1-2.23 2.41l-.26.05a8 8 0 0 1-2.24-.01l-.31-.05c-1.3-.25-2.16-1.31-2.3-2.69l-.02-.28v-1.56h-.03c.02-.45.02-.88.07-1.3l.03-.21a3.2 3.2 0 0 1 .83-1.8 3 3 0 0 1 1.79-.78Zm1.21.96c-.8-.06-1.46.1-1.95.49a2.4 2.4 0 0 0-.79 1.52l-.04.3c-.05.52-.06 1.06-.03 1.6l.02.52c.07.95.4 1.56.92 1.92.45.3 1.03.41 1.63.41h.26c.69-.03 1.25-.2 1.66-.53.36-.3.59-.7.7-1.2l.03-.22c.05-.4.03-.85.02-1.24v-1.28a2.46 2.46 0 0 0-.59-1.59c-.36-.38-.88-.6-1.54-.68l-.3-.02Zm45.6-35.79a7.8 7.8 0 0 1 1.87-.08l.26.03c.88.1 1.56.45 2.04.98.41.47.67 1.09.75 1.83l.02.33c.02.42 0 .84 0 1.27v.2h.04c-.03.5-.03 1-.1 1.47l-.04.24a3.07 3.07 0 0 1-.74 1.56c-.33.35-.75.6-1.28.72l-.23.05c-.77.13-1.58.14-2.36.05l-.34-.04a2.83 2.83 0 0 1-2.37-2.57l-.02-.26a50 50 0 0 1-.02-2.2l.02-.72a2.9 2.9 0 0 1 2.23-2.8l.27-.06Zm.98.97-.32.02c-.59.06-1.07.25-1.42.6-.31.3-.5.7-.58 1.2l-.03.21c-.04.35-.05.7-.05 1.04v1.03c0 .93.24 1.64.78 2.1.46.39 1.1.55 1.9.52l.35-.02c.72-.07 1.25-.27 1.62-.67.32-.34.5-.81.56-1.4l.02-.26c.02-.33 0-.68 0-.99v-.2h-.02v-.87l-.01-.36a2.06 2.06 0 0 0-1.63-1.88l-.18-.04a5.68 5.68 0 0 0-.99-.03Zm-28.3-1.01a5.56 5.56 0 0 1 2.58.15l.17.07a2.94 2.94 0 0 1 1.82 2.69h-.66l-.26-.02a.3.3 0 0 1-.12-.07.43.43 0 0 1-.06-.06l-.03-.04a2.44 2.44 0 0 0-.69-1.2 2.1 2.1 0 0 0-1.1-.47l-.2-.02a5.6 5.6 0 0 0-.94-.01l-.31.03c-.94.13-1.67.82-1.76 1.79a16 16 0 0 0-.08 2.29l.02.32c.06.79.32 1.39.79 1.78.4.35.95.5 1.6.52h.3a2.69 2.69 0 0 0 1.55-.46c.34-.25.57-.63.75-1.12l.08-.22v-.01l.02-.02a.36.36 0 0 1 .1-.1h.02c.32-.03.63-.02.96-.02a2.6 2.6 0 0 1-.5 1.66c-.34.49-.82.88-1.38 1.1l-.25.07a5.6 5.6 0 0 1-2.61.08l-.38-.1a2.9 2.9 0 0 1-1.5-.93c-.3-.38-.5-.85-.6-1.4l-.03-.24c-.09-1-.1-2.01-.02-3l.04-.42c.1-.8.39-1.4.83-1.82a3 3 0 0 1 1.56-.76l.3-.04Zm49.03 43.02c-.01-1.5 0-3-.04-4.5l-.02-.64c-.03-.6-.25-1.1-.62-1.44-.33-.3-.77-.48-1.27-.54l-.21-.02h-.7a2.3 2.3 0 0 0-1.55.56c-.34.32-.55.75-.62 1.28l-.02.24c-.03.65-.04 1.3-.04 1.96V51h-1.1v-5.26c0-1.08.32-1.9.88-2.46a3.35 3.35 0 0 1 2.46-.87h.9l.29.03c.86.12 1.52.43 1.97.93a3 3 0 0 1 .73 1.78l.03.34c.08 1.81.03 3.63.02 5.51h-1.09v-.37Zm-60.73-7.99.02.3v4.65c0 .29.03.58.09.87l.07.29c.18.63.6 1.14 1.27 1.29l.13.02c.51.08 1.05.11 1.57.06l.22-.03a1.83 1.83 0 0 0 1.57-1.6l.02-.18a75 75 0 0 0 .06-2.12l.02-2.13v-1.4h1.08v.1l.01 2.64v2.64c-.02 1.4-.65 2.44-1.77 2.9l-.22.1a5.02 5.02 0 0 1-3.16.01l-.21-.07a2.67 2.67 0 0 1-1.8-2.4l-.01-.22c-.08-1.9-.03-3.8-.03-5.72h1.07ZM148.4 7.57c.35 0 .7 0 1.04.02l.33.04c.78.13 1.4.44 1.84.9.38.4.63.93.71 1.58l.03.29c.08 1.91.02 3.82.02 5.76h-1.07v-3.77l-.01-1.15a3.94 3.94 0 0 0-.25-1.36l-.08-.18c-.3-.57-.73-.85-1.22-.98-.36-.09-.75-.1-1.12-.08l-.37.02c-.42.02-.8.13-1.11.35-.28.19-.5.45-.65.79l-.07.15c-.1.28-.16.6-.18.9l-.02.3c-.02 1.56 0 3.1 0 4.65v.36h-1.1V10.8c.01-1.02.33-1.83.88-2.38a3.13 3.13 0 0 1 2-.82l.38-.02Zm-36.75 34.85.32.03c.86.11 1.53.45 2 .96a3 3 0 0 1 .73 1.75l.02.32c.05 1.84.02 3.69.01 5.54h-1.08V46.2c0-.25-.02-.52-.06-.79l-.04-.26-.04-.14a1.79 1.79 0 0 0-1.26-1.36l-.14-.03a5.5 5.5 0 0 0-1.58-.09l-.23.03c-.55.1-1 .35-1.29.75-.26.36-.4.8-.43 1.32v.23c-.02 1.6-.01 3.2-.01 4.79V51h-1.07l-.02-.26v-5.17c0-.96.33-1.75.87-2.29a3.05 3.05 0 0 1 1.93-.85l.35-.01c.36 0 .69-.02 1.02 0Zm-5.42-34.64.01.27v5.03c0 1.03-.28 1.82-.8 2.36-.45.48-1.1.8-1.94.92l-.38.03c-.88.07-1.72.03-2.48-.36l-.15-.08a2.78 2.78 0 0 1-1.34-1.9l-.06-.35c-.05-.28-.03-.58-.03-.9v-5h1.09v5.41c.06.7.28 1.37.96 1.77l.17.09a3 3 0 0 0 2.77-.03l.17-.1c.53-.33.8-.84.88-1.41l.01-.25c.02-.86.03-1.73.03-2.59l.02-2.59v-.32h1.07Zm30.24 32.64v2.19h2.87v1h-2.8v.18c-.02.19-.04.37-.04.53v3.22c0 .8.2 1.43.62 1.86.37.37.9.56 1.56.61l.3.01c.25 0 .4.08.5.17a.6.6 0 0 1 .15.35v.48a5.6 5.6 0 0 1-2.6-.3l-.18-.1a2.6 2.6 0 0 1-1.42-2.19l-.01-.19c-.05-2.6-.02-5.2-.02-7.81h1.07ZM127.8 5.58v2.17h2.94c0 .34.02.62-.02.9a.52.52 0 0 1-.15.1l-.06.01c-.8.03-1.61.01-2.44.01v.15l-.18-.04-.14.29h.12c0 1.18-.05 2.35 0 3.51l.02.53a2 2 0 0 0 .65 1.42c.33.29.77.46 1.28.52l.22.01c.3.02.6.01.9 0v1.07l-1-.07a7.9 7.9 0 0 1-.85-.1l-.28-.05a2.61 2.61 0 0 1-2.03-2.36l-.01-.24c-.04-2.6-.01-5.22-.01-7.83h1.04ZM141.97 33c-.02-1.48 0-2.97-.04-4.46l-.03-.63a2 2 0 0 0-.72-1.56 2.5 2.5 0 0 0-1.5-.47h-.26c-.6.02-1.13.23-1.51.62-.33.33-.54.78-.6 1.31v.23c-.03 1.67-.02 3.33-.02 4.99v.35h-1.11V33l-.01-3.74-.03-1.25a2.19 2.19 0 0 0-.69-1.63 2.36 2.36 0 0 0-1.48-.5h-.26a2.2 2.2 0 0 0-1.58.62c-.33.35-.53.82-.59 1.39l-.01.24c-.02 1.72 0 3.43 0 5.14l-.02.11h-1.06l-.02-.3v-5.03c0-1.05.32-1.85.86-2.4a3.08 3.08 0 0 1 2-.83l.38-.02c.75 0 1.21.05 1.62.23.4.19.78.5 1.33 1.1l.18.17.13-.2c.69-1.06 1.69-1.33 2.84-1.31l.5.02c.84.06 1.52.39 2 .93.4.48.68 1.14.76 1.95l.03.36c.05 1.78 0 3.55 0 5.33h-1.1V33ZM87.58 21.62v1.06h-6.65v4.17h6.1v1.1h-6.1v4.33h6.71v1.1h-7.88V21.62h7.82ZM116.94 25c.17 0 .27.04.34.09.07.04.13.12.21.28l.12.3.14.4 1.71 5.04.22.56.18.46.18-.46.94-2.36.73-1.84.25-.6c.1-.22.16-.44.16-.66 0-.17-.04-.34-.1-.5l-.09-.16a4.15 4.15 0 0 1-.23-.55c.4 0 .75-.01 1.1.02a.3.3 0 0 1 .05.06.8.8 0 0 1 .1.18l2.27 5.72.3.7.2.49.17-.5 1.42-4.21.4-1.13.38-1.14c.03-.1.06-.15.09-.17.01 0 .03-.02.1-.02h1.06l-.88 2.5-1 2.81-.98 2.81c-.06.15-.1.22-.16.25-.04.03-.12.05-.28.05h-.32l-.24-.02a.55.55 0 0 1-.25-.07.47.47 0 0 1-.15-.18 2.38 2.38 0 0 1-.09-.2l-.12-.29-1.93-4.7-.19-.46-.17.46-.99 2.49-.82 2.07-.29.68a.4.4 0 0 1-.12.13.52.52 0 0 1-.09.05l-.05.02c-.3.02-.5.03-.65.02-.15 0-.23-.03-.28-.07a.8.8 0 0 1-.18-.24 3.28 3.28 0 0 1-.1-.26l-.14-.36-2.6-7.25-.08-.24c.33-.01.57-.02.75 0Zm-11.02-3.4v8.56c0 1.1-.28 1.93-.8 2.5-.46.49-1.13.8-2.02.92l-.4.04c-.4.03-.79.03-1.18 0l-.38-.04c-.78-.11-1.4-.4-1.85-.86-.4-.4-.66-.93-.78-1.6l-.04-.3c-.1-1-.1-2.03 0-3.03l.05-.43c.1-.82.46-1.45.99-1.89a3.12 3.12 0 0 1 1.77-.66l.3-.01h.75c.75-.04 1.43.13 2.1.67v.39l.33-.34.16-.15-.1-.08V21.6h1.1Zm-3.33 4.26a4.18 4.18 0 0 0-.8 0l-.26.02c-.53.06-1 .26-1.34.58-.3.3-.5.67-.57 1.12l-.02.2c-.06.84-.08 1.7-.02 2.54l.02.36c.08.9.62 1.62 1.58 1.77.58.1 1.2.09 1.78.02l.25-.03a1.7 1.7 0 0 0 1.42-1.26l.03-.13c.07-.3.1-.6.14-.91l.08-.9.03-.21h-.09v-.75l-.01-.26a2.38 2.38 0 0 0-.56-1.44c-.34-.37-.8-.58-1.4-.68l-.26-.04Zm45.17-1.04a8.86 8.86 0 0 1 1.75.03l.25.04a2.86 2.86 0 0 1 2.47 2.48l.03.27c.05.66.02 1.32.01 2.06h-6.23l-.03.17c-.12.75.05 1.43.45 1.93s1.01.8 1.75.8c.44 0 .9-.06 1.33-.15l.44-.1c.17-.05.34-.16.48-.28.11-.1.2-.2.28-.32l.07-.11c.1-.17.18-.26.27-.3a.56.56 0 0 1 .27-.06h.12c.22.03.46.02.7.02-.2.9-.67 1.54-1.42 1.91l-.16.08c-1.18.5-2.41.52-3.62.14l-.24-.08a2.68 2.68 0 0 1-1.8-2.3l-.02-.23c-.08-.99-.1-2 0-2.99l.04-.42c.1-.78.41-1.4.89-1.83.42-.38.97-.63 1.63-.73l.3-.03Zm.6.96-.3.02c-.71.06-1.3.38-1.67.88a2.4 2.4 0 0 0-.37 1.9l.03.16h5.11l.01-.19c.06-.88-.1-1.58-.54-2.07a2.37 2.37 0 0 0-1.65-.7l-.31-.01h-.3Zm-37.93-.9c.6-.1 1.23-.12 1.83-.07l.25.03c.86.11 1.5.41 1.95.89.4.41.66.98.77 1.71l.04.33a16 16 0 0 1 0 2.78l-.04.39a2.96 2.96 0 0 1-.75 1.77c-.36.38-.85.65-1.45.78l-.27.04a8.3 8.3 0 0 1-2.64-.06c-1.23-.23-2.07-1.24-2.24-2.54l-.02-.26-.01-.36v-2.5c.04-.8.3-1.47.74-1.97.38-.44.9-.76 1.56-.9l.28-.06Zm.88.98-.3.02c-.59.05-1.07.26-1.43.6-.3.32-.5.73-.57 1.22l-.02.21c-.03.35-.04.7-.04 1.04v1.02c-.01.96.25 1.66.8 2.1.46.38 1.1.54 1.86.52l.33-.02c.73-.07 1.29-.28 1.66-.69.33-.35.5-.84.56-1.45l.02-.27v-1.14h-.02v-.8l-.01-.33-.02-.2a2.12 2.12 0 0 0-.56-1.18 2.2 2.2 0 0 0-1.36-.63c-.3-.03-.6-.04-.9-.02ZM92.5 24.8c.57.01 1.13 0 1.66.1l.23.04c.68.16 1.2.48 1.57.94.32.41.53.95.6 1.62l.03.3c.1 1.84.03 3.68.02 5.58h-1.07V33l-.01-2.57c0-.64-.02-1.28-.04-1.92l-.02-.65a2 2 0 0 0-.63-1.44 2.2 2.2 0 0 0-1.27-.52l-.22-.02h-.6c-.7.01-1.27.21-1.67.61a2.2 2.2 0 0 0-.6 1.42l-.02.26c-.02 1.61 0 3.23 0 4.84v.38h-1.09c0-1.71-.06-3.41 0-5.1l.04-.75c.06-.86.4-1.55.93-2a3.1 3.1 0 0 1 1.83-.72l.33-.01Zm65.1 0c.34 0 .66 0 .97.02l.31.04c.8.13 1.41.44 1.84.9.38.4.63.92.71 1.58l.03.29c.1 1.71.04 3.43.06 5.16v.6h-1.11V28.8l-.04-.87a2.13 2.13 0 0 0-.63-1.5c-.33-.3-.78-.49-1.3-.54l-.22-.02c-.26 0-.55-.02-.83 0l-.28.04c-.57.1-1.02.37-1.33.79a2.6 2.6 0 0 0-.45 1.39v.24c-.02 1.56 0 3.13 0 4.69v.36h-1.1v-5.2l.02-.4c.07-.92.37-1.62.85-2.11.5-.5 1.2-.8 2.1-.86l.4-.01Zm7.06-2.01v2.2h2.92v.98h-2.8l-.03.17c0 .08-.02.14-.03.2l-.02.2v3.47c0 .74.21 1.34.63 1.75.36.37.86.57 1.48.63l.27.01h.72v.96c-1.81.25-3.33-.26-3.91-1.65l-.06-.15a3.57 3.57 0 0 1-.19-.77l-.01-.25c-.02-2.56-.02-5.11-.01-7.67v-.08h1.04Zm-22.32 19.86V51h-1.03v-8.34h1.03Zm-8.66-34.84v8.35h-1.03V7.8h1.03Zm8.66 29.96v1.45h-.68l-.26-.01-.02-.01a.37.37 0 0 1-.11-.12c-.03-.42-.02-.85-.02-1.31h1.09Zm-8.66-33.09v1.44h-1.03V4.68h1.03Z"/>
</svg>
