<svg id="Layer_1" data-name="Layer 1" xmlns="http://www.w3.org/2000/svg" width="235.8807" height="90.6927" viewBox="0 0 235.8807 90.6927"><defs><style>.cls-1{fill:#231f20;}.cls-2{fill:#49773d;}.cls-3{fill:#017db9;}.cls-4{fill:#ca8a2a;}.cls-5{fill:#3dac49;}.cls-6{fill:#00abd6;}.cls-7{fill:#e81f2f;}.cls-8{fill:#cf9d2b;}.cls-9{fill:#2b9847;}.cls-10{fill:#c12034;}.cls-11{fill:#ee4028;}.cls-12{fill:#1b3668;}.cls-13{fill:#005589;}.cls-14{fill:#fab516;}.cls-15{fill:#8d1837;}.cls-16{fill:#f26e25;}.cls-17{fill:#f89c25;}.cls-18{fill:#de1881;}</style></defs><path class="cls-1" d="M112.424,7.6209a.3157.3157,0,0,1,.0949.2305v2.06a.3238.3238,0,0,1-.325.3249h-3.442a.12.12,0,0,0-.1359.1356V26.1738a.324.324,0,0,1-.325.3253h-2.4934a.3239.3239,0,0,1-.3256-.3253V10.372a.12.12,0,0,0-.1353-.1356h-3.253a.3237.3237,0,0,1-.3249-.3249v-2.06a.3237.3237,0,0,1,.3249-.3253h10.11A.3142.3142,0,0,1,112.424,7.6209Z"/><path class="cls-1" d="M123.1034,13.6112a5.3858,5.3858,0,0,1,.9076,3.3472v9.2154a.324.324,0,0,1-.325.3253h-2.4933a.324.324,0,0,1-.3257-.3253V17.2023a2.4843,2.4843,0,0,0-.4064-1.5178,1.37,1.37,0,0,0-1.1652-.542,1.4436,1.4436,0,0,0-1.22.5692,2.5366,2.5366,0,0,0-.434,1.572v8.89a.324.324,0,0,1-.325.3253h-2.4934a.324.324,0,0,1-.3256-.3253V7.8514a.3239.3239,0,0,1,.3256-.3253h2.4934a.3238.3238,0,0,1,.325.3253v5.665a.0836.0836,0,0,0,.068.0948c.0446.0092.0948-.0226.1493-.0948a3.6057,3.6057,0,0,1,5.2445.0948Z"/><path class="cls-1" d="M135.6794,20.6309a.3131.3131,0,0,1-.2308.0948h-5.99a.12.12,0,0,0-.1353.1356v1.22a2.0589,2.0589,0,0,0,.4609,1.3823,1.4908,1.4908,0,0,0,1.1922.5419,1.5666,1.5666,0,0,0,1.0711-.3929,1.8294,1.8294,0,0,0,.5827-1.0163.34.34,0,0,1,.3518-.2711l2.4127.1083a.3143.3143,0,0,1,.23.0949.28.28,0,0,1,.0679.2577,4.2005,4.2005,0,0,1-1.3826,2.9135,5.8905,5.8905,0,0,1-6.8437-.1624,4.1405,4.1405,0,0,1-1.2871-3.212V16.8228a4.1612,4.1612,0,0,1,1.2871-3.1847,5.7108,5.7108,0,0,1,7.02,0,4.1617,4.1617,0,0,1,1.2878,3.1847v3.578A.3132.3132,0,0,1,135.6794,20.6309Zm-5.8951-4.9464a2.0611,2.0611,0,0,0-.4609,1.3822v1.22a.1194.1194,0,0,0,.1353.1356h3.0632a.12.12,0,0,0,.1353-.1356v-1.22a2.0478,2.0478,0,0,0-.4609-1.3957,1.5379,1.5379,0,0,0-1.22-.5285A1.4927,1.4927,0,0,0,129.7843,15.6845Z"/><path class="cls-1" d="M144.6505,25.3741a4.7135,4.7135,0,0,1-1.3961-3.5641V12.2152a4.7148,4.7148,0,0,1,1.3961-3.5642,5.1133,5.1133,0,0,1,3.7-1.3416,5.211,5.211,0,0,1,3.7267,1.3416,4.7023,4.7023,0,0,1,1.423,3.5914v1.057a.324.324,0,0,1-.3257.3253h-2.4934a.3238.3238,0,0,1-.3249-.3253V12.1883a2.2152,2.2152,0,0,0-.5558-1.5724,1.8921,1.8921,0,0,0-1.45-.5961,1.8474,1.8474,0,0,0-1.4364.5961,2.2467,2.2467,0,0,0-.5423,1.5724v9.6489a2.2444,2.2444,0,0,0,.5423,1.572,1.8464,1.8464,0,0,0,1.4364.5961,1.891,1.891,0,0,0,1.45-.5961,2.2131,2.2131,0,0,0,.5558-1.572v-2.602a.12.12,0,0,0-.136-.1356h-1.653a.324.324,0,0,1-.325-.3253V16.7959a.324.324,0,0,1,.325-.3253h4.6073a.324.324,0,0,1,.3257.3253V21.81a4.6678,4.6678,0,0,1-1.423,3.5641A5.2112,5.2112,0,0,1,148.35,26.716,5.1134,5.1134,0,0,1,144.6505,25.3741Z"/><path class="cls-1" d="M155.8715,26.4042a.3112.3112,0,0,1-.0949-.23V7.8514a.3238.3238,0,0,1,.325-.3253h2.4941a.3238.3238,0,0,1,.3249.3253V26.1738a.324.324,0,0,1-.3249.3253h-2.4941A.3115.3115,0,0,1,155.8715,26.4042Z"/><path class="cls-1" d="M162.3485,25.5232a4.1824,4.1824,0,0,1-1.2871-3.2251V16.85a4.169,4.169,0,0,1,1.3013-3.212,5.7894,5.7894,0,0,1,7.0738,0,4.1717,4.1717,0,0,1,1.3012,3.212v5.448a4.1829,4.1829,0,0,1-1.2878,3.2251,5.8812,5.8812,0,0,1-7.1014,0Zm4.7709-2.0733a2.0132,2.0132,0,0,0,.4743-1.396V17.0667a2.0263,2.0263,0,0,0-.4743-1.3822,1.5636,1.5636,0,0,0-1.2333-.542,1.5379,1.5379,0,0,0-1.22.5285,2.0478,2.0478,0,0,0-.4609,1.3957v4.9872a2.0479,2.0479,0,0,0,.4609,1.396,1.5391,1.5391,0,0,0,1.22.5285A1.5813,1.5813,0,0,0,167.1194,23.45Z"/><path class="cls-1" d="M181.5381,13.5974a4.7461,4.7461,0,0,1,1.0166,3.2254V22.325a4.8086,4.8086,0,0,1-1.0031,3.1982,3.48,3.48,0,0,1-2.8184,1.1928,3.36,3.36,0,0,1-2.44-.9486.089.089,0,0,0-.1083-.0273.1084.1084,0,0,0-.0545.1084v.3253a.3238.3238,0,0,1-.3249.3253h-2.4934a.324.324,0,0,1-.3257-.3253V7.8514a.3239.3239,0,0,1,.3257-.3253h2.4934a.3237.3237,0,0,1,.3249.3253v5.4752a.0837.0837,0,0,0,.068.0949c.0446.0092.0948-.0227.1494-.0949a3.31,3.31,0,0,1,1.1518-.6778,3.8156,3.8156,0,0,1,1.2332-.2167A3.5278,3.5278,0,0,1,181.5381,13.5974Zm-2.5613,2.0736a1.5379,1.5379,0,0,0-1.22-.5285,1.4961,1.4961,0,0,0-1.0839.42,1.9172,1.9172,0,0,0-.5423,1.1246v5.7733a1.9163,1.9163,0,0,0,.5423,1.1249,1.4946,1.4946,0,0,0,1.0839.42,1.5379,1.5379,0,0,0,1.22-.5285,2.047,2.047,0,0,0,.4608-1.3957V17.0667A2.0477,2.0477,0,0,0,178.9768,15.671Z"/><path class="cls-1" d="M193.0168,13.6788a4.2883,4.2883,0,0,1,1.3281,3.28v9.2154a.324.324,0,0,1-.3249.3253h-2.4934a.324.324,0,0,1-.3257-.3253v-.5151a.11.11,0,0,0-.0538-.1083c-.0368-.0177-.0729,0-.1083.0542a3.4349,3.4349,0,0,1-2.7653,1.1114,4.4281,4.4281,0,0,1-2.7234-.881,3.7786,3.7786,0,0,1-1.1795-3.212,3.9946,3.9946,0,0,1,1.423-3.4693,6.4672,6.4672,0,0,1,3.8626-1.03h1.4095a.12.12,0,0,0,.1352-.1355v-.7048a2.3471,2.3471,0,0,0-.4878-1.5585,1.5267,1.5267,0,0,0-1.22-.5827,1.3119,1.3119,0,0,0-.9486.3657,1.62,1.62,0,0,0-.4609.9893.3152.3152,0,0,1-.3518.3253h-2.6294a.2628.2628,0,0,1-.298-.3253,4.0917,4.0917,0,0,1,1.45-2.9542,4.9256,4.9256,0,0,1,3.2933-1.1112A4.8656,4.8656,0,0,1,193.0168,13.6788Zm-2.4389,9.92a1.7615,1.7615,0,0,0,.623-1.4365V20.6174a.12.12,0,0,0-.1352-.1355h-1.4095a2.1739,2.1739,0,0,0-1.491.5015,1.83,1.83,0,0,0-.5692,1.45,1.6776,1.6776,0,0,0,.434,1.2605,1.5287,1.5287,0,0,0,1.1115.42A2.1924,2.1924,0,0,0,190.5779,23.599Z"/><path class="cls-1" d="M196.5806,26.4042a.3112.3112,0,0,1-.0949-.23V7.8514a.3238.3238,0,0,1,.325-.3253h2.4941a.3237.3237,0,0,1,.3249.3253V26.1738a.3238.3238,0,0,1-.3249.3253h-2.4941A.3117.3117,0,0,1,196.5806,26.4042Z"/><path class="cls-1" d="M103.3035,53.6333a4.752,4.752,0,0,1-1.3819-3.5507v-.7048a.3238.3238,0,0,1,.325-.3249h2.4664a.3239.3239,0,0,1,.3257.3249V49.92a2.6225,2.6225,0,0,0,.5281,1.7076,1.6825,1.6825,0,0,0,1.3692.65,1.7687,1.7687,0,0,0,1.3819-.61,2.3391,2.3391,0,0,0,.5423-1.6127,2.3985,2.3985,0,0,0-.298-1.22,3.8219,3.8219,0,0,0-.84-.9759q-.5426-.46-1.7344-1.3281a23.963,23.963,0,0,1-2.1819-1.7345,6.5354,6.5354,0,0,1-1.3827-1.83,5.31,5.31,0,0,1-.5557-2.48,4.7813,4.7813,0,0,1,1.355-3.5777,5.4526,5.4526,0,0,1,7.21.0677,5.0284,5.0284,0,0,1,1.3827,3.7v.6506a.324.324,0,0,1-.3257.3253H109.05a.3239.3239,0,0,1-.3256-.3253v-.7048a2.5673,2.5673,0,0,0-.5282-1.6941,1.725,1.725,0,0,0-1.396-.6368,1.6909,1.6909,0,0,0-1.3281.5827,2.3518,2.3518,0,0,0-.5147,1.6127,2.5191,2.5191,0,0,0,.5557,1.6534,12.9272,12.9272,0,0,0,2.1819,1.87,31.7486,31.7486,0,0,1,2.4934,1.9922,5.8731,5.8731,0,0,1,1.3,1.6941,4.8576,4.8576,0,0,1,.4609,2.1953,5.0293,5.0293,0,0,1-1.3819,3.7,4.8843,4.8843,0,0,1-3.6318,1.3961A4.9656,4.9656,0,0,1,103.3035,53.6333Z"/><path class="cls-1" d="M114.2123,54.6768a.3139.3139,0,0,1-.0949-.23V36.124a.3239.3239,0,0,1,.3257-.3253h4.6349a5.0117,5.0117,0,0,1,3.7267,1.41,5.1208,5.1208,0,0,1,1.396,3.7673v8.6193a5.12,5.12,0,0,1-1.396,3.7673,5.0106,5.0106,0,0,1-3.7267,1.41h-4.6349A.3143.3143,0,0,1,114.2123,54.6768Zm3.185-2.6155,1.6262-.0273a1.7478,1.7478,0,0,0,1.45-.7182,3.16,3.16,0,0,0,.5826-1.9107v-8.24a3.0927,3.0927,0,0,0-.555-1.9377,1.8036,1.8036,0,0,0-1.5044-.7186h-1.5993a.12.12,0,0,0-.1352.1356V51.9257A.1194.1194,0,0,0,117.3973,52.0613Z"/><path class="cls-1" d="M127.9819,53.6467a4.7131,4.7131,0,0,1-1.3961-3.5641V40.4878a4.7144,4.7144,0,0,1,1.3961-3.5642,5.1133,5.1133,0,0,1,3.7-1.3416,5.2107,5.2107,0,0,1,3.7266,1.3416,4.702,4.702,0,0,1,1.423,3.5914v1.057a.3239.3239,0,0,1-.3256.3253h-2.4934a.324.324,0,0,1-.325-.3253V40.4609a2.2156,2.2156,0,0,0-.5557-1.5724,1.8922,1.8922,0,0,0-1.45-.5961,1.8473,1.8473,0,0,0-1.4364.5961,2.2462,2.2462,0,0,0-.5423,1.5724V50.11a2.244,2.244,0,0,0,.5423,1.572,1.8463,1.8463,0,0,0,1.4364.5961,1.8912,1.8912,0,0,0,1.45-.5961,2.2134,2.2134,0,0,0,.5557-1.572v-2.602a.12.12,0,0,0-.1359-.1356h-1.6531a.324.324,0,0,1-.3249-.3253V45.0685a.324.324,0,0,1,.3249-.3253h4.6074a.3239.3239,0,0,1,.3256.3253v5.0141a4.6674,4.6674,0,0,1-1.423,3.5641,5.211,5.211,0,0,1-3.7266,1.342A5.1135,5.1135,0,0,1,127.9819,53.6467Z"/><path class="cls-1" d="M145.6933,53.6333a4.752,4.752,0,0,1-1.3819-3.5507v-.7048a.3238.3238,0,0,1,.3249-.3249h2.4665a.3239.3239,0,0,1,.3257.3249V49.92a2.6225,2.6225,0,0,0,.5281,1.7076,1.6825,1.6825,0,0,0,1.3692.65,1.7689,1.7689,0,0,0,1.3819-.61,2.3391,2.3391,0,0,0,.5423-1.6127,2.3976,2.3976,0,0,0-.2981-1.22,3.8194,3.8194,0,0,0-.84-.9759q-.5426-.46-1.7345-1.3281a23.991,23.991,0,0,1-2.1819-1.7345,6.537,6.537,0,0,1-1.3826-1.83,5.31,5.31,0,0,1-.5557-2.48,4.7813,4.7813,0,0,1,1.355-3.5777,5.4526,5.4526,0,0,1,7.21.0677,5.0284,5.0284,0,0,1,1.3827,3.7v.6506a.324.324,0,0,1-.3257.3253H151.44a.3239.3239,0,0,1-.3256-.3253v-.7048a2.5673,2.5673,0,0,0-.5282-1.6941,1.725,1.725,0,0,0-1.396-.6368,1.6909,1.6909,0,0,0-1.3281.5827,2.3518,2.3518,0,0,0-.5147,1.6127,2.5191,2.5191,0,0,0,.5557,1.6534,12.9272,12.9272,0,0,0,2.1819,1.87,31.7486,31.7486,0,0,1,2.4934,1.9922,5.8731,5.8731,0,0,1,1.3,1.6941,4.8576,4.8576,0,0,1,.4609,2.1953,5.0293,5.0293,0,0,1-1.3819,3.7,4.8843,4.8843,0,0,1-3.6318,1.3961A4.9656,4.9656,0,0,1,145.6933,53.6333Z"/><path class="cls-1" d="M155.9656,60.0707a.46.46,0,0,1-.0538-.23V57.8888a.34.34,0,0,1,.0814-.2305.2409.2409,0,0,1,.19-.0948,4.3107,4.3107,0,0,0,1.4088-.23,1.6175,1.6175,0,0,0,.8269-.7862,4.9943,4.9943,0,0,0,.4474-1.6937l-.0269-.1628-3.4151-13.4436v-.1083q0-.2444.298-.2439h2.6562a.3053.3053,0,0,1,.3519.298l1.6537,8.9715c.0177.0541.0446.0814.0815.0814s.063-.0273.0814-.0814l1.5985-8.9715a.3059.3059,0,0,1,.3526-.298l2.6831.0541c.2527,0,.3525.1175.298.3522l-3.6317,14.23a11.7433,11.7433,0,0,1-1.0839,2.8732,3.1777,3.1777,0,0,1-1.5993,1.355,8.3765,8.3765,0,0,1-2.9542.4067h-.1359C156.0378,60.1655,156.0017,60.1337,155.9656,60.0707Z"/><path class="cls-1" d="M175.7655,41.8838a5.386,5.386,0,0,1,.9076,3.3472v9.2154a.324.324,0,0,1-.3249.3253h-2.4934a.324.324,0,0,1-.3257-.3253V45.4749a2.4843,2.4843,0,0,0-.4064-1.5178,1.37,1.37,0,0,0-1.1652-.542,1.4436,1.4436,0,0,0-1.22.5692,2.5366,2.5366,0,0,0-.434,1.572v8.89a.324.324,0,0,1-.3249.3253h-2.4934a.324.324,0,0,1-.3257-.3253v-13.2a.3239.3239,0,0,1,.3257-.3253h2.4934a.3238.3238,0,0,1,.3249.3253v.5423a.0836.0836,0,0,0,.068.0948c.0446.0092.0948-.0226.1493-.0948a3.6057,3.6057,0,0,1,5.2445.0948Z"/><path class="cls-1" d="M184.7635,43.0491a.3125.3125,0,0,1-.23.0949h-1.6807a.12.12,0,0,0-.1352.1355V50.381a1.8926,1.8926,0,0,0,.3518,1.3143,1.3274,1.3274,0,0,0,1.0577.3387h.19a.324.324,0,0,1,.325.3253v2.0871a.324.324,0,0,1-.325.3253h-.9217a4.7182,4.7182,0,0,1-2.778-.6775,2.9633,2.9633,0,0,1-.9352-2.5479V43.28a.12.12,0,0,0-.1359-.1355h-.9487a.3238.3238,0,0,1-.3249-.3253v-1.572a.3237.3237,0,0,1,.3249-.3253h.9487a.12.12,0,0,0,.1359-.1356V37.8046a.324.324,0,0,1,.3249-.3253h2.3851a.324.324,0,0,1,.3257.3253v2.9812a.1194.1194,0,0,0,.1352.1356h1.6807a.3238.3238,0,0,1,.3249.3253v1.572A.3139.3139,0,0,1,184.7635,43.0491Z"/><path class="cls-1" d="M195.3077,41.8838a5.386,5.386,0,0,1,.9076,3.3472v9.2154a.324.324,0,0,1-.3249.3253H193.397a.324.324,0,0,1-.3257-.3253V45.4749a2.4843,2.4843,0,0,0-.4064-1.5178,1.37,1.37,0,0,0-1.1652-.542,1.4436,1.4436,0,0,0-1.22.5692,2.5366,2.5366,0,0,0-.434,1.572v8.89a.324.324,0,0,1-.325.3253h-2.4933a.324.324,0,0,1-.3257-.3253V36.124a.3239.3239,0,0,1,.3257-.3253h2.4933a.3238.3238,0,0,1,.325.3253v5.665a.0836.0836,0,0,0,.068.0948c.0446.0092.0948-.0226.1493-.0948a3.6057,3.6057,0,0,1,5.2445.0948Z"/><path class="cls-1" d="M207.8837,48.9035a.3131.3131,0,0,1-.2308.0948h-5.99a.12.12,0,0,0-.1353.1356v1.22a2.0589,2.0589,0,0,0,.4609,1.3823,1.4908,1.4908,0,0,0,1.1922.5419,1.5666,1.5666,0,0,0,1.0711-.3929,1.8294,1.8294,0,0,0,.5827-1.0163.34.34,0,0,1,.3518-.2711l2.4127.1083a.3143.3143,0,0,1,.23.0949.28.28,0,0,1,.0679.2577,4.2005,4.2005,0,0,1-1.3826,2.9135,5.89,5.89,0,0,1-6.8437-.1624,4.1405,4.1405,0,0,1-1.2871-3.212V45.0954a4.1612,4.1612,0,0,1,1.2871-3.1847,5.7108,5.7108,0,0,1,7.02,0,4.1617,4.1617,0,0,1,1.2878,3.1847v3.578A.3132.3132,0,0,1,207.8837,48.9035Zm-5.8951-4.9464a2.0611,2.0611,0,0,0-.4609,1.3822v1.22a.1194.1194,0,0,0,.1353.1356h3.0632a.12.12,0,0,0,.1353-.1356v-1.22a2.0478,2.0478,0,0,0-.4609-1.3957,1.5379,1.5379,0,0,0-1.22-.5285A1.4927,1.4927,0,0,0,201.9886,43.9571Z"/><path class="cls-1" d="M210.96,53.9044a3.399,3.399,0,0,1-1.2736-2.7918v-.19a.324.324,0,0,1,.325-.3253h2.3312a.324.324,0,0,1,.325.3253v.1356a1.3746,1.3746,0,0,0,.5012,1.0842,1.8189,1.8189,0,0,0,1.2333.4336,1.5016,1.5016,0,0,0,1.1114-.4067,1.3948,1.3948,0,0,0,.4064-1.03,1.2608,1.2608,0,0,0-.3518-.9079,2.5668,2.5668,0,0,0-.759-.5554q-.4066-.19-1.464-.6233A7.78,7.78,0,0,1,210.81,47.535a3.5611,3.5611,0,0,1-.9891-2.7376,3.764,3.764,0,0,1,1.2064-2.9681,5.53,5.53,0,0,1,6.6129.0545,3.89,3.89,0,0,1,1.2333,3.0219.324.324,0,0,1-.325.3253h-2.2767a.324.324,0,0,1-.325-.3253v-.1625A1.449,1.449,0,0,0,215.5,43.659a1.552,1.552,0,0,0-1.1249-.4336,1.47,1.47,0,0,0-1.125.4471,1.5079,1.5079,0,0,0-.42,1.0707,1.2309,1.2309,0,0,0,.325.8673,2.53,2.53,0,0,0,.732.5557q.4066.2034,1.355.61a15.3381,15.3381,0,0,1,1.9108.9079,4.3,4.3,0,0,1,1.355,1.274,3.4624,3.4624,0,0,1,.5833,2.0463,3.5358,3.5358,0,0,1-1.2743,2.8729,6.1556,6.1556,0,0,1-6.8572.0272Z"/><path class="cls-1" d="M221.1782,38.4821a1.925,1.925,0,0,1,1.3827-3.3068,1.8282,1.8282,0,0,1,1.3684.5423,1.8976,1.8976,0,0,1,.5289,1.3823,1.8734,1.8734,0,0,1-.5423,1.3822,1.8381,1.8381,0,0,1-1.355.542A1.87,1.87,0,0,1,221.1782,38.4821ZM221.11,54.6768a.3139.3139,0,0,1-.0949-.23v-13.2a.3239.3239,0,0,1,.3257-.3253h2.4934a.3238.3238,0,0,1,.3249.3253v13.2a.324.324,0,0,1-.3249.3253h-2.4934A.3132.3132,0,0,1,221.11,54.6768Z"/><path class="cls-1" d="M227.5746,53.9044a3.3987,3.3987,0,0,1-1.2736-2.7918v-.19a.3238.3238,0,0,1,.3249-.3253h2.3313a.3238.3238,0,0,1,.3249.3253v.1356a1.3744,1.3744,0,0,0,.5013,1.0842,1.8185,1.8185,0,0,0,1.2332.4336,1.5018,1.5018,0,0,0,1.1115-.4067,1.3951,1.3951,0,0,0,.4063-1.03,1.2608,1.2608,0,0,0-.3518-.9079,2.5677,2.5677,0,0,0-.7589-.5554q-.4068-.19-1.4641-.6233a7.7806,7.7806,0,0,1-2.5344-1.5179,3.5614,3.5614,0,0,1-.989-2.7376,3.7639,3.7639,0,0,1,1.2063-2.9681,5.53,5.53,0,0,1,6.613.0545,3.8907,3.8907,0,0,1,1.2332,3.0219.324.324,0,0,1-.3249.3253H232.887a.324.324,0,0,1-.325-.3253v-.1625a1.4486,1.4486,0,0,0-.4474-1.0842,1.5519,1.5519,0,0,0-1.1249-.4336,1.47,1.47,0,0,0-1.1249.4471,1.5075,1.5075,0,0,0-.42,1.0707,1.2313,1.2313,0,0,0,.3249.8673,2.5315,2.5315,0,0,0,.732.5557q.4068.2034,1.355.61a15.3381,15.3381,0,0,1,1.9108.9079,4.2994,4.2994,0,0,1,1.355,1.274,3.4617,3.4617,0,0,1,.5833,2.0463,3.5355,3.5355,0,0,1-1.2743,2.8729,6.1555,6.1555,0,0,1-6.8571.0272Z"/><path class="cls-1" d="M103.5343,81.8652a4.999,4.999,0,0,1-1.3961-3.7V68.9232a4.9437,4.9437,0,0,1,1.3961-3.7,5.0567,5.0567,0,0,1,3.7-1.3689,5.1415,5.1415,0,0,1,3.74,1.3689,4.9193,4.9193,0,0,1,1.41,3.7v.3249a.3622.3622,0,0,1-.0949.2443.2965.2965,0,0,1-.2308.1083l-2.52.1083a.2878.2878,0,0,1-.3256-.3253v-.6775a2.2109,2.2109,0,0,0-.5416-1.5451,1.85,1.85,0,0,0-1.4365-.5961,1.8169,1.8169,0,0,0-1.4095.5961,2.2081,2.2081,0,0,0-.5423,1.5451v9.7031a2.2055,2.2055,0,0,0,.5423,1.5451,1.8158,1.8158,0,0,0,1.4095.5961,1.8487,1.8487,0,0,0,1.4365-.5961,2.2083,2.2083,0,0,0,.5416-1.5451v-.6775a.3239.3239,0,0,1,.3256-.3253l2.52.1087a.324.324,0,0,1,.3257.3249v.3253a4.9742,4.9742,0,0,1-1.41,3.7,5.082,5.082,0,0,1-3.74,1.3961A4.9989,4.9989,0,0,1,103.5343,81.8652Z"/><path class="cls-1" d="M115.5135,82.0684a4.1824,4.1824,0,0,1-1.2871-3.2251v-5.448a4.169,4.169,0,0,1,1.3013-3.212,5.7894,5.7894,0,0,1,7.0738,0,4.1717,4.1717,0,0,1,1.3012,3.212v5.448a4.1826,4.1826,0,0,1-1.2878,3.2251,5.8808,5.8808,0,0,1-7.1014,0Zm4.7709-2.0733a2.0132,2.0132,0,0,0,.4743-1.396V73.6119a2.0263,2.0263,0,0,0-.4743-1.3822,1.5636,1.5636,0,0,0-1.2333-.542,1.5379,1.5379,0,0,0-1.22.5285,2.0478,2.0478,0,0,0-.4609,1.3957v4.9872a2.0479,2.0479,0,0,0,.4609,1.396,1.5391,1.5391,0,0,0,1.22.5285A1.5813,1.5813,0,0,0,120.2844,79.9951Z"/><path class="cls-1" d="M134.3371,70.224a4.2879,4.2879,0,0,1,1.3281,3.28V82.719a.3238.3238,0,0,1-.3249.3253h-2.4934a.324.324,0,0,1-.3257-.3253v-.5151a.11.11,0,0,0-.0538-.1083c-.0368-.0177-.0729,0-.1083.0542a3.4347,3.4347,0,0,1-2.7652,1.1115A4.4277,4.4277,0,0,1,126.87,82.38a3.7787,3.7787,0,0,1-1.1794-3.2119,3.9946,3.9946,0,0,1,1.4229-3.4693,6.4667,6.4667,0,0,1,3.8626-1.03h1.41a.12.12,0,0,0,.1352-.1355v-.7048a2.3476,2.3476,0,0,0-.4877-1.5585,1.5273,1.5273,0,0,0-1.22-.5827,1.3122,1.3122,0,0,0-.9487.3657,1.6206,1.6206,0,0,0-.4609.9893.3152.3152,0,0,1-.3518.3253H126.423a.2628.2628,0,0,1-.2981-.3253,4.092,4.092,0,0,1,1.45-2.9542,4.9264,4.9264,0,0,1,3.2934-1.1112A4.8653,4.8653,0,0,1,134.3371,70.224Zm-2.4389,9.92a1.7615,1.7615,0,0,0,.623-1.4365V77.1626a.12.12,0,0,0-.1352-.1355h-1.41a2.1734,2.1734,0,0,0-1.4909.5015,1.83,1.83,0,0,0-.5692,1.45,1.6776,1.6776,0,0,0,.4339,1.2605,1.5288,1.5288,0,0,0,1.1115.42A2.1922,2.1922,0,0,0,131.8982,80.1442Z"/><path class="cls-1" d="M137.9016,82.9494a.3111.3111,0,0,1-.0948-.23V64.3966a.3237.3237,0,0,1,.3249-.3253h2.4941a.3238.3238,0,0,1,.325.3253V82.719a.324.324,0,0,1-.325.3253h-2.4941A.3117.3117,0,0,1,137.9016,82.9494Z"/><path class="cls-1" d="M143.5794,66.7547a1.925,1.925,0,0,1,1.3826-3.3068,1.8284,1.8284,0,0,1,1.3685.5423,1.898,1.898,0,0,1,.5288,1.3823,1.8731,1.8731,0,0,1-.5423,1.3822,1.8378,1.8378,0,0,1-1.355.542A1.87,1.87,0,0,1,143.5794,66.7547Zm-.068,16.1947a.3138.3138,0,0,1-.0948-.23v-13.2a.3237.3237,0,0,1,.3256-.3253h2.4934a.3237.3237,0,0,1,.3249.3253v13.2a.3238.3238,0,0,1-.3249.3253h-2.4934A.3132.3132,0,0,1,143.5114,82.9494Z"/><path class="cls-1" d="M154.8414,71.3217a.3127.3127,0,0,1-.23.0949h-1.6806a.12.12,0,0,0-.1353.1356v7.1014a1.8926,1.8926,0,0,0,.3519,1.3143,1.3272,1.3272,0,0,0,1.0577.3387h.19a.3238.3238,0,0,1,.3249.3253V82.719a.3238.3238,0,0,1-.3249.3253h-.9217a4.7182,4.7182,0,0,1-2.778-.6775,2.9633,2.9633,0,0,1-.9352-2.5479V71.5522a.12.12,0,0,0-.136-.1356h-.9486a.324.324,0,0,1-.325-.3253v-1.572a.3238.3238,0,0,1,.325-.3253h.9486a.12.12,0,0,0,.136-.1356V66.0772a.3238.3238,0,0,1,.3249-.3253H152.47a.3239.3239,0,0,1,.3256.3253v2.9812a.1194.1194,0,0,0,.1353.1356h1.6806a.3238.3238,0,0,1,.325.3253v1.572A.3139.3139,0,0,1,154.8414,71.3217Z"/><path class="cls-1" d="M157.05,66.7547a1.925,1.925,0,0,1,1.3826-3.3068,1.8284,1.8284,0,0,1,1.3685.5423,1.8975,1.8975,0,0,1,.5288,1.3823,1.8731,1.8731,0,0,1-.5423,1.3822,1.8378,1.8378,0,0,1-1.355.542A1.87,1.87,0,0,1,157.05,66.7547Zm-.068,16.1947a.3138.3138,0,0,1-.0948-.23v-13.2a.3237.3237,0,0,1,.3256-.3253h2.4934a.3238.3238,0,0,1,.325.3253v13.2a.324.324,0,0,1-.325.3253H157.213A.3134.3134,0,0,1,156.9822,82.9494Z"/><path class="cls-1" d="M163.6766,82.0684a4.1824,4.1824,0,0,1-1.287-3.2251v-5.448a4.169,4.169,0,0,1,1.3012-3.212,5.7894,5.7894,0,0,1,7.0738,0,4.1717,4.1717,0,0,1,1.3012,3.212v5.448a4.1826,4.1826,0,0,1-1.2878,3.2251,5.8808,5.8808,0,0,1-7.1014,0Zm4.7709-2.0733a2.0132,2.0132,0,0,0,.4743-1.396V73.6119a2.0263,2.0263,0,0,0-.4743-1.3822,1.5636,1.5636,0,0,0-1.2333-.542,1.5379,1.5379,0,0,0-1.22.5285,2.0478,2.0478,0,0,0-.4609,1.3957v4.9872a2.0479,2.0479,0,0,0,.4609,1.396,1.5391,1.5391,0,0,0,1.22.5285A1.5813,1.5813,0,0,0,168.4475,79.9951Z"/><path class="cls-1" d="M182.9207,70.1564a5.386,5.386,0,0,1,.9076,3.3472V82.719a.3238.3238,0,0,1-.3249.3253H181.01a.324.324,0,0,1-.3257-.3253V73.7475a2.485,2.485,0,0,0-.4063-1.5178,1.37,1.37,0,0,0-1.1653-.542,1.4439,1.4439,0,0,0-1.22.5692,2.5373,2.5373,0,0,0-.434,1.572v8.89a.3238.3238,0,0,1-.3249.3253h-2.4934a.324.324,0,0,1-.3257-.3253v-13.2a.3239.3239,0,0,1,.3257-.3253h2.4934a.3237.3237,0,0,1,.3249.3253v.5423a.0836.0836,0,0,0,.068.0948c.0446.0092.0949-.0226.1494-.0948a3.6056,3.6056,0,0,1,5.2444.0948Z"/><path class="cls-2" d="M45.2077,22.09a23.0528,23.0528,0,0,1,12.1178,3.4265l2.699-3.837A27.8568,27.8568,0,0,0,36.4228,18.832l1.7088,4.3654A23.1029,23.1029,0,0,1,45.2077,22.09Z"/><path class="cls-3" d="M68.3829,44.479l4.6821.1327A27.8139,27.8139,0,0,0,62.4144,23.3644l-2.7009,3.84A23.1609,23.1609,0,0,1,68.3829,44.479Z"/><path class="cls-4" d="M35.41,24.2674,33.7,19.8988A27.931,27.931,0,0,0,18.2987,38.01l4.5872.9852A23.2958,23.2958,0,0,1,35.41,24.2674Z"/><path class="cls-5" d="M58.6671,64.1592l2.48,3.9872A27.84,27.84,0,0,0,72.9825,47.5347l-4.6868-.1328A23.1921,23.1921,0,0,1,58.6671,64.1592Z"/><path class="cls-6" d="M22.0121,45.2853a23.2756,23.2756,0,0,1,.2555-3.4319l-4.5824-.9843a28.0612,28.0612,0,0,0-.3518,4.4162A27.7555,27.7555,0,0,0,24.295,63.703l3.3588-3.2866A23.0809,23.0809,0,0,1,22.0121,45.2853Z"/><path class="cls-7" d="M68.0225,78.5072l2.519,3.9692A44.9453,44.9453,0,0,0,90.1708,46.7473H85.4919A40.3081,40.3081,0,0,1,68.0225,78.5072Z"/><path class="cls-8" d="M45.2077,85.6067a40.0909,40.0909,0,0,1-15.8321-3.2426l-1.9968,4.2435a45.0124,45.0124,0,0,0,40.6925-2.5665l-2.517-3.9661A40.0619,40.0619,0,0,1,45.2077,85.6067Z"/><path class="cls-9" d="M5.4177,51.7858l-4.6495.5874a45.0348,45.0348,0,0,0,23.968,32.9819l1.9986-4.2473A40.425,40.425,0,0,1,5.4177,51.7858Z"/><path class="cls-10" d="M4.8864,45.2853A40.226,40.226,0,0,1,18.4127,15.19L15.4186,11.57A44.88,44.88,0,0,0,.2077,45.2853c0,1.4122.0735,2.8067.2008,4.1857l4.6469-.5871C4.95,47.6974,4.8864,46.4989,4.8864,45.2853Z"/><path class="cls-11" d="M45.2077,4.964A40.1262,40.1262,0,0,1,56.267,6.5168L57.7148,2.061A44.9479,44.9479,0,0,0,17.6716,9.706l2.9939,3.619A40.1076,40.1076,0,0,1,45.2077,4.964Z"/><path class="cls-12" d="M39.7526,36.5253a10.4169,10.4169,0,0,0-4.3207,5.2972l4.3893,1.6161a5.7907,5.7907,0,1,1,1.7652,6.4791l-2.9607,3.62a10.4685,10.4685,0,1,0,1.1269-17.012Z"/><path class="cls-13" d="M58.9042,41.1418A14.3315,14.3315,0,1,1,47.61,31.1805l.8237-4.6058a18.9736,18.9736,0,1,0,14.9428,13.18Z"/><path class="cls-14" d="M68.4683,23.2847l3.4753-2.9991A36.4691,36.4691,0,0,0,37.3213,9.5477l1.1714,4.4358a31.9007,31.9007,0,0,1,29.9756,9.3012Z"/><path class="cls-15" d="M73.8355,22.4832l-3.4748,2.9987a31.91,31.91,0,0,1,4.7545,30.9852l4.2167,1.808a36.4843,36.4843,0,0,0-5.4964-35.7919Z"/><path class="cls-16" d="M48.2463,76.9593A31.9346,31.9346,0,0,0,73.97,59.1313l4.2211,1.81A36.5212,36.5212,0,0,1,48.47,81.54Z"/><path class="cls-17" d="M14.6,25.3669l3.749,2.6481a31.9091,31.9091,0,0,0-1.7312,31.3l-4.0218,2.2078A36.4836,36.4836,0,0,1,14.6,25.3669Z"/><path class="cls-18" d="M45.3452,77.1086A31.9347,31.9347,0,0,1,18.0158,61.8557l-4.0261,2.21A36.5213,36.5213,0,0,0,45.5665,81.69Z"/></svg>